<svg width="54" height="191" viewBox="0 0 54 191" fill="none" xmlns="http://www.w3.org/2000/svg">
<g clip-path="url(#clip0_201_2)">
<path d="M4.23384 62.8847L26.5052 63.0511L26.4433 71.3389C26.4312 72.9602 26.0147 74.4504 25.1939 75.8097C24.3729 77.1902 23.266 78.2807 21.8733 79.081C20.502 79.8814 19.0057 80.2756 17.3844 80.2634L13.0965 80.2314C11.4752 80.2193 9.97428 79.8027 8.59371 78.9817C7.23447 78.1609 6.15471 77.0541 5.35442 75.6615C4.55398 74.2901 4.15981 72.7938 4.17193 71.1725L4.23384 62.8847ZM26.273 94.1297L26.2637 95.3777L3.92397 104.363L3.93353 103.083L11.3158 100.13L11.3978 89.1545L4.06071 86.0596L4.07003 84.8116L26.273 94.1297ZM12.5462 89.6431L12.4713 99.6588L24.7325 94.7262L12.5462 89.6431ZM26.0127 128.984L3.78597 122.834L3.7953 121.586L16.2038 118.351L3.84502 114.93L3.85434 113.682L26.1704 107.865L26.1613 109.081L6.05774 114.307L18.4803 117.76L26.1114 115.769L26.1023 116.985L18.4712 118.976L5.99846 122.243L26.0217 127.768L26.0127 128.984ZM25.9818 133.12L25.9729 134.304L12.2133 134.201C10.8053 134.19 9.50141 134.533 8.30151 135.228C7.10162 135.923 6.14522 136.865 5.43232 138.054C4.71941 139.244 4.3577 140.542 4.34718 141.95C4.33666 143.358 4.67893 144.662 5.37399 145.862C6.06904 147.062 7.01126 148.018 8.20063 148.731C9.39001 149.444 10.6887 149.806 12.0966 149.816L25.8563 149.919L25.8474 151.103L12.0878 151C10.4665 150.988 8.96557 150.572 7.585 149.751C6.22576 148.93 5.146 147.823 4.34571 146.43C3.54527 145.059 3.1511 143.563 3.16321 141.941C3.17533 140.32 3.59188 138.819 4.41289 137.439C5.23373 136.079 6.32983 135 7.70118 134.199C9.09387 133.399 10.6009 133.005 12.2221 133.017L25.9818 133.12ZM25.7393 165.574C25.7272 167.196 25.3107 168.686 24.4899 170.045C23.6689 171.426 22.562 172.516 21.1693 173.316C19.798 174.117 18.3017 174.511 16.6804 174.499L12.3925 174.467C10.7712 174.455 9.27027 174.038 7.8897 173.217C6.53046 172.396 5.4507 171.29 4.65041 169.897C3.84997 168.525 3.4558 167.029 3.46792 165.408L3.52935 157.184L25.8007 157.35L25.7393 165.574ZM16.6892 173.315C18.0972 173.325 19.4011 172.983 20.601 172.288C21.8009 171.593 22.7574 170.64 23.4704 169.429C24.1833 168.24 24.545 166.941 24.5556 165.533L24.6079 158.526L4.70448 158.377L4.65212 165.385C4.6416 166.793 4.98387 168.097 5.67893 169.296C6.37382 170.518 7.31596 171.485 8.50533 172.198C9.69471 172.911 10.9934 173.272 12.4013 173.283L16.6892 173.315Z" fill="url(#paint0_linear_201_2)"/>
<path d="M6.84 28.728H23.064V34.36H12.664V37.176H21.304V42.52H12.664V45.368H23.064V51H6.84V28.728Z" fill="url(#paint1_linear_201_2)"/>
<path d="M13.138 57.328C13.138 56.7853 13.3287 56.3233 13.71 55.942C14.106 55.546 14.5827 55.348 15.14 55.348C15.6973 55.348 16.1667 55.546 16.548 55.942C16.944 56.3233 17.142 56.7853 17.142 57.328C17.142 57.8707 16.944 58.34 16.548 58.736C16.1667 59.132 15.6973 59.33 15.14 59.33C14.5973 59.33 14.128 59.132 13.732 58.736C13.336 58.34 13.138 57.8707 13.138 57.328Z" fill="white"/>
</g>
<defs>
<linearGradient id="paint0_linear_201_2" x1="17" y1="176" x2="15" y2="54.5" gradientUnits="userSpaceOnUse">
<stop stop-color="#AC43FF"/>
<stop offset="0.730179" stop-color="#CDADE7"/>
<stop offset="0.974531" stop-color="white"/>
</linearGradient>
<linearGradient id="paint1_linear_201_2" x1="18.9226" y1="63.9271" x2="18.9227" y2="24.5521" gradientUnits="userSpaceOnUse">
<stop offset="0.447917" stop-color="white"/>
<stop offset="0.541667" stop-color="white"/>
<stop offset="0.974531" stop-color="white"/>
</linearGradient>
<clipPath id="clip0_201_2">
<rect width="54" height="191" fill="white"/>
</clipPath>
</defs>
</svg>
